<?xml version="1.0" standalone="no"?><!DOCTYPE svg PUBLIC "-//W3C//DTD SVG 1.1//EN" "http://www.w3.org/Graphics/SVG/1.1/DTD/svg11.dtd"><svg t="1757597120638" class="icon" viewBox="0 0 1024 1024" version="1.1" xmlns="http://www.w3.org/2000/svg" p-id="1564" xmlns:xlink="http://www.w3.org/1999/xlink" width="200" height="200"><path d="M787.2512 509.263872c-6.3488-6.7584-6.3488-17.408 0.4096-23.7568l17.408-17.2032c6.5536-6.5536 17.408-6.3488 23.7568 0.2048l29.696 30.5152 48.128-47.104-29.696-30.5152c-6.3488-6.7584-6.3488-17.408 0.4096-23.7568l17.408-17.2032c6.5536-6.5536 17.408-6.3488 23.7568 0.2048l29.696 30.5152 19.8656-19.6608c6.5536-6.5536 17.408-6.3488 23.7568 0.2048l22.1184 22.7328c6.3488 6.7584 6.3488 17.408-0.4096 23.7568l-292.864 286.9248c35.2256 62.0544 13.5168 141.1072-48.7424 176.3328-62.0544 35.2256-141.1072 13.5168-176.3328-48.7424-35.2256-62.0544-13.5168-141.1072 48.7424-176.3328 40.7552-23.1424 90.7264-22.3232 130.6624 1.8432l141.5168-138.6496m-163.84 207.0528c-23.552-24.3712-62.464-24.9856-86.8352-1.2288l-0.4096 0.4096c-24.3712 23.7568-24.9856 62.8736-1.024 87.2448 23.7568 24.3712 62.8736 24.9856 87.2448 1.024s24.9856-62.8736 1.024-87.4496c0 0.2048 0 0 0 0zM560.3328 525.443072c-28.2624-25.6-60.6208-46.08-95.8464-60.6208 48.128-40.96 75.5712-101.1712 74.9568-164.4544 8.6016-105.472-69.8368-197.8368-175.3088-206.4384-105.472-8.6016-197.8368 69.8368-206.4384 175.3088-0.8192 10.4448-0.8192 20.6848 0 31.1296-0.6144 62.0544 26.0096 121.4464 72.704 162.4064-48.128 19.2512-91.136 49.3568-125.7472 87.8592-64.9216 72.4992-100.352 166.7072-99.328 264.192-1.4336 16.7936 11.264 31.744 28.0576 32.9728 16.7936 1.4336 31.744-11.264 32.9728-28.0576 0.2048-1.6384 0.2048-3.2768 0-4.9152-0.8192-80.0768 28.4672-157.696 81.7152-217.4976 93.7984-108.544 257.8432-120.6272 366.3872-26.8288 2.2528 2.048 4.5056 3.8912 6.7584 5.9392 11.6736 10.8544 30.1056 10.0352 40.96-1.6384 0.8192-0.8192 1.4336-1.6384 2.048-2.6624 10.8544-14.1312 9.0112-34.4064-3.8912-46.6944z m-221.7984-365.9776c71.68-6.3488 134.5536 51.4048 140.288 129.2288 5.9392 77.824-47.5136 146.0224-118.9888 152.3712-71.68 6.3488-134.5536-51.4048-140.288-129.2288-0.2048-3.8912-0.4096-7.7824-0.4096-11.4688-2.6624-74.752 50.5856-137.6256 119.3984-140.9024z" fill="#FFA801" p-id="1565"></path></svg>